<svg width="55" height="55" viewBox="0 0 55 55" fill="none" xmlns="http://www.w3.org/2000/svg">
<path d="M49.9709 23.0118H48.1249V22.9167H27.4999V32.0833H40.4513C38.5618 37.4195 33.4846 41.25 27.4999 41.25C19.9065 41.25 13.7499 35.0934 13.7499 27.5C13.7499 19.9066 19.9065 13.75 27.4999 13.75C31.005 13.75 34.1939 15.0723 36.6219 17.2322L43.1039 10.7502C39.011 6.93574 33.5362 4.58334 27.4999 4.58334C14.8442 4.58334 4.58325 14.8443 4.58325 27.5C4.58325 40.1557 14.8442 50.4167 27.4999 50.4167C40.1556 50.4167 50.4166 40.1557 50.4166 27.5C50.4166 25.9634 50.2585 24.4636 49.9709 23.0118Z" fill="#FFC107"/>
<path d="M7.22559 16.8334L14.7549 22.3552C16.7921 17.3113 21.7261 13.75 27.5 13.75C31.0051 13.75 34.1939 15.0723 36.6219 17.2322L43.1039 10.7502C39.011 6.93574 33.5362 4.58334 27.5 4.58334C18.6977 4.58334 11.0641 9.55282 7.22559 16.8334Z" fill="#FF3D00"/>
<path d="M27.5 50.4167C33.4193 50.4167 38.7979 48.1513 42.8644 44.4675L35.7717 38.4656C33.3936 40.2742 30.4877 41.2524 27.5 41.25C21.5393 41.25 16.4782 37.4493 14.5715 32.1452L7.09839 37.903C10.8911 45.3246 18.5934 50.4167 27.5 50.4167Z" fill="#4CAF50"/>
<path d="M49.9709 23.0118H48.125V22.9167H27.5V32.0833H40.4514C39.5475 34.623 37.9195 36.8422 35.7683 38.4668L35.7718 38.4645L42.8645 44.4663C42.3626 44.9224 50.4167 38.9583 50.4167 27.5C50.4167 25.9634 50.2585 24.4635 49.9709 23.0118Z" fill="#1976D2"/>
</svg>
