<svg width="145" height="160" viewBox="0 0 145 160" fill="none" xmlns="http://www.w3.org/2000/svg">
<path d="M145 80.0143C145 70.7124 132.971 61.897 114.528 56.4304C118.784 38.2272 116.893 23.7449 108.558 19.1082C106.637 18.0206 104.391 17.5054 101.937 17.5054V23.888C103.297 23.888 104.391 24.1456 105.307 24.6321C109.326 26.8646 111.07 35.3651 109.711 46.2984C109.385 48.9888 108.853 51.8223 108.203 54.7131C102.41 53.3393 96.0854 52.2803 89.4354 51.5934C85.4454 46.2984 81.3076 41.4901 77.1402 37.2827C86.7754 28.6105 95.8194 23.8594 101.967 23.8594V17.4768C93.8392 17.4768 83.1992 23.0866 72.4409 32.8178C61.6826 23.1438 51.0426 17.5913 42.9148 17.5913V23.9738C49.0328 23.9738 58.1064 28.6963 67.7415 37.3114C63.6038 41.5187 59.466 46.2984 55.5351 51.5934C48.8555 52.2803 42.5306 53.3393 36.7377 54.7417C36.0579 51.8796 35.5554 49.1033 35.2008 46.4415C33.8117 35.5082 35.5259 27.0077 39.5159 24.7466C40.4026 24.2314 41.5552 24.0025 42.9148 24.0025V17.6199C40.4321 17.6199 38.1859 18.1351 36.2352 19.2227C27.9301 23.8594 26.0681 38.3131 30.3537 56.459C11.97 61.9543 0 70.741 0 80.0143C0 89.3162 12.0291 98.1316 30.4719 103.598C26.2159 121.801 28.1074 136.284 36.4421 140.92C38.3632 142.008 40.6095 142.523 43.0921 142.523C51.2199 142.523 61.86 136.913 72.6182 127.182C83.3765 136.856 94.0165 142.409 102.144 142.409C104.627 142.409 106.873 141.893 108.824 140.806C117.129 136.169 118.991 121.715 114.705 103.57C133.03 98.1029 145 89.2876 145 80.0143ZM106.519 60.9239C105.425 64.6161 104.065 68.4227 102.529 72.2293C101.317 69.9396 100.046 67.6499 98.6568 65.3602C97.2972 63.0705 95.849 60.838 94.4007 58.6628C98.5976 59.2639 102.647 60.008 106.519 60.9239ZM92.9821 91.4056C90.6767 95.2694 88.3123 98.933 85.8592 102.339C81.4554 102.711 76.9925 102.911 72.5 102.911C68.0371 102.911 63.5742 102.711 59.2 102.368C56.7468 98.9616 54.3528 95.3267 52.0475 91.4914C49.8013 87.742 47.7619 83.9354 45.8999 80.1002C47.7324 76.2649 49.8013 72.4297 52.0179 68.6803C54.3233 64.8164 56.6877 61.1529 59.1409 57.7469C63.5446 57.3749 68.0075 57.1745 72.5 57.1745C76.9629 57.1745 81.4258 57.3749 85.8 57.7183C88.2532 61.1243 90.6472 64.7592 92.9525 68.5944C95.1987 72.3438 97.2381 76.1504 99.1001 79.9857C97.2381 83.8209 95.1987 87.6562 92.9821 91.4056ZM102.529 87.6848C104.125 91.5201 105.484 95.3553 106.607 99.0761C102.735 99.992 98.6568 100.765 94.4303 101.366C95.8785 99.1619 97.3268 96.9008 98.6863 94.5825C100.046 92.2928 101.317 89.9745 102.529 87.6848ZM72.5591 118.224C69.8104 115.476 67.0618 112.414 64.3426 109.065C67.0027 109.179 69.7218 109.265 72.4705 109.265C75.2487 109.265 77.9974 109.208 80.6869 109.065C78.0269 112.414 75.2782 115.476 72.5591 118.224ZM50.5697 101.366C46.3728 100.765 42.3237 100.021 38.4519 99.1047C39.5455 95.4126 40.905 91.6059 42.4419 87.7993C43.6537 90.089 44.9246 92.3787 46.3137 94.6684C47.7028 96.9581 49.1215 99.1906 50.5697 101.366ZM72.4113 41.8049C75.16 44.5525 77.9087 47.615 80.6278 50.9637C77.9678 50.8492 75.2487 50.7634 72.5 50.7634C69.7218 50.7634 66.9731 50.8206 64.2835 50.9637C66.9436 47.615 69.6922 44.5525 72.4113 41.8049ZM50.5402 58.6628C49.0919 60.8667 47.6437 63.1277 46.2841 65.4461C44.9246 67.7358 43.6537 70.0255 42.4419 72.3152C40.8459 68.4799 39.4863 64.6447 38.3632 60.9239C42.235 60.0366 46.3137 59.2639 50.5402 58.6628ZM23.7923 94.4967C13.3296 90.1749 6.56135 84.5078 6.56135 80.0143C6.56135 75.5208 13.3296 69.8251 23.7923 65.5319C26.3341 64.4729 29.1123 63.5284 31.9792 62.6412C33.6639 68.251 35.8806 74.0897 38.6292 80.0715C35.9101 86.0248 33.723 91.8349 32.0679 97.416C29.1419 96.5288 26.3636 95.5557 23.7923 94.4967ZM39.6932 135.396C35.6737 133.164 33.9299 124.663 35.2894 113.73C35.6146 111.04 36.1466 108.206 36.7968 105.316C42.5897 106.689 48.9146 107.748 55.5646 108.435C59.5546 113.73 63.6924 118.539 67.8598 122.746C58.2246 131.418 49.1806 136.169 43.033 136.169C41.703 136.141 40.5799 135.883 39.6932 135.396ZM109.799 113.587C111.188 124.52 109.474 133.021 105.484 135.282C104.597 135.797 103.445 136.026 102.085 136.026C95.9672 136.026 86.8936 131.304 77.2585 122.689C81.3963 118.481 85.534 113.702 89.465 108.407C96.1445 107.72 102.469 106.661 108.262 105.258C108.942 108.149 109.474 110.925 109.799 113.587ZM121.178 94.4967C118.636 95.5557 115.858 96.5002 112.991 97.3874C111.307 91.7776 109.09 85.9389 106.341 79.9571C109.06 74.0038 111.247 68.1937 112.903 62.6126C115.829 63.4998 118.607 64.4729 121.208 65.5319C131.67 69.8537 138.439 75.5208 138.439 80.0143C138.409 84.5078 131.641 90.2035 121.178 94.4967Z" fill="url(#paint0_linear_1_107)"/>
<path d="M72.4705 93.0942C79.9302 93.0942 85.9775 87.2381 85.9775 80.0142C85.9775 72.7904 79.9302 66.9343 72.4705 66.9343C65.0109 66.9343 58.9636 72.7904 58.9636 80.0142C58.9636 87.2381 65.0109 93.0942 72.4705 93.0942Z" fill="url(#paint1_linear_1_107)"/>
<defs>
<linearGradient id="paint0_linear_1_107" x1="72.5" y1="17.4768" x2="72.5" y2="142.523" gradientUnits="userSpaceOnUse">
<stop stop-color="#00A7B4"/>
<stop offset="1" stop-color="#A4D96C"/>
</linearGradient>
<linearGradient id="paint1_linear_1_107" x1="72.4706" y1="66.9343" x2="72.4706" y2="93.0942" gradientUnits="userSpaceOnUse">
<stop stop-color="#00A7B4"/>
<stop offset="1" stop-color="#A4D96C"/>
</linearGradient>
</defs>
</svg>
