<svg width="59" height="66" viewBox="0 0 59 66" fill="none" xmlns="http://www.w3.org/2000/svg">
<path d="M59 33.0059C59 29.1689 54.1054 25.5326 46.6011 23.2776C48.3329 15.7688 47.5632 9.7948 44.1718 7.88219C43.3901 7.43355 42.4762 7.22103 41.478 7.22103V9.85383C42.0312 9.85383 42.4762 9.96009 42.849 10.1608C44.4845 11.0817 45.194 14.5882 44.6409 19.0982C44.5086 20.2079 44.2921 21.3768 44.0275 22.5692C41.6704 22.0025 39.0968 21.5657 36.3909 21.2823C34.7674 19.0982 33.0838 17.1147 31.3881 15.3792C35.3086 11.8019 38.9886 9.84203 41.49 9.84203V7.20923C38.1828 7.20923 33.8534 9.52326 29.4759 13.5374C25.0984 9.54687 20.7691 7.25645 17.4619 7.25645V9.88925C19.9513 9.88925 23.6433 11.8373 27.5638 15.391C25.8801 17.1265 24.1965 19.0982 22.597 21.2823C19.8791 21.5657 17.3055 22.0025 14.9484 22.581C14.6718 21.4004 14.4674 20.2552 14.3231 19.1572C13.7578 14.6472 14.4554 11.1407 16.0789 10.208C16.4397 9.99551 16.9087 9.90106 17.4619 9.90106V7.26826C16.4517 7.26826 15.5377 7.48077 14.744 7.92941C11.3647 9.84203 10.607 15.8042 12.3508 23.2894C4.87057 25.5562 0 29.1807 0 33.0059C0 36.843 4.89462 40.4793 12.3989 42.7343C10.6671 50.2431 11.4368 56.2171 14.8282 58.1297C15.6099 58.5783 16.5238 58.7909 17.534 58.7909C20.8412 58.7909 25.1706 56.4768 29.5481 52.4627C33.9256 56.4532 38.255 58.7436 41.5622 58.7436C42.5724 58.7436 43.4863 58.5311 44.2801 58.0825C47.6594 56.1699 48.417 50.2077 46.6733 42.7225C54.1294 40.4675 59 36.8312 59 33.0059ZM43.342 25.1312C42.8971 26.6542 42.3439 28.2244 41.7185 29.7946C41.2254 28.8501 40.7083 27.9056 40.1431 26.9611C39.5899 26.0166 39.0006 25.0957 38.4113 24.1985C40.119 24.4464 41.7666 24.7534 43.342 25.1312ZM37.8341 37.7048C36.896 39.2987 35.934 40.8099 34.9358 42.2148C33.1439 42.3683 31.328 42.451 29.5 42.451C27.6841 42.451 25.8681 42.3683 24.0883 42.2267C23.0901 40.8217 22.116 39.3223 21.1779 37.7403C20.264 36.1936 19.4342 34.6234 18.6765 33.0414C19.4221 31.4593 20.264 29.8773 21.1659 28.3307C22.104 26.7368 23.066 25.2256 24.0642 23.8207C25.8561 23.6672 27.672 23.5845 29.5 23.5845C31.3159 23.5845 33.1319 23.6672 34.9117 23.8089C35.9099 25.2138 36.884 26.7132 37.8221 28.2952C38.736 29.8419 39.5658 31.4121 40.3235 32.9941C39.5658 34.5762 38.736 36.1582 37.8341 37.7048ZM41.7185 36.17C42.3679 37.7521 42.9211 39.3341 43.3781 40.8689C41.8027 41.2467 40.1431 41.5655 38.4234 41.8134C39.0126 40.9043 39.6019 39.9716 40.1551 39.0153C40.7083 38.0708 41.2254 37.1145 41.7185 36.17ZM29.5241 48.7673C28.4056 47.6339 27.2872 46.3707 26.1808 44.9893C27.2631 45.0365 28.3695 45.072 29.488 45.072C30.6184 45.072 31.7369 45.0483 32.8312 44.9893C31.7489 46.3707 30.6305 47.6339 29.5241 48.7673ZM20.5766 41.8134C18.8689 41.5655 17.2214 41.2585 15.6459 40.8807C16.0909 39.3577 16.6441 37.7875 17.2695 36.2173C17.7625 37.1618 18.2797 38.1063 18.8449 39.0508C19.4101 39.9953 19.9874 40.9162 20.5766 41.8134ZM29.4639 17.2446C30.5824 18.378 31.7008 19.6412 32.8072 21.0226C31.7248 20.9753 30.6184 20.9399 29.5 20.9399C28.3695 20.9399 27.2511 20.9635 26.1567 21.0226C27.2391 19.6412 28.3575 18.378 29.4639 17.2446ZM20.5646 24.1985C19.9753 25.1075 19.3861 26.0402 18.8329 26.9966C18.2797 27.9411 17.7625 28.8856 17.2695 29.8301C16.6201 28.248 16.0669 26.666 15.6099 25.1312C17.1853 24.7652 18.8449 24.4464 20.5646 24.1985ZM9.68101 38.9799C5.42377 37.1972 2.66979 34.8595 2.66979 33.0059C2.66979 31.1524 5.42377 28.8029 9.68101 27.032C10.7152 26.5951 11.8457 26.2055 13.0122 25.8395C13.6977 28.1536 14.5997 30.562 15.7181 33.0296C14.6117 35.4853 13.7218 37.8819 13.0483 40.1842C11.8577 39.8182 10.7273 39.4168 9.68101 38.9799ZM16.151 55.8511C14.5155 54.9302 13.806 51.4237 14.3592 46.9137C14.4914 45.804 14.7079 44.6351 14.9725 43.4427C17.3296 44.0094 19.9032 44.4462 22.6091 44.7296C24.2326 46.9137 25.9162 48.8972 27.6119 50.6327C23.6914 54.21 20.0114 56.1699 17.51 56.1699C16.9688 56.1581 16.5118 56.0518 16.151 55.8511ZM44.6769 46.8547C45.2422 51.3647 44.5446 54.8712 42.9211 55.8039C42.5603 56.0164 42.0913 56.1108 41.5381 56.1108C39.0487 56.1108 35.3567 54.1628 31.4362 50.6091C33.1199 48.8736 34.8035 46.9019 36.403 44.7178C39.1209 44.4344 41.6945 43.9976 44.0516 43.4191C44.3282 44.6115 44.5446 45.7567 44.6769 46.8547ZM49.307 38.9799C48.2727 39.4168 47.1423 39.8064 45.9757 40.1724C45.2903 37.8583 44.3883 35.4498 43.2699 32.9823C44.3763 30.5266 45.2662 28.13 45.9397 25.8277C47.1302 26.1937 48.2607 26.5951 49.319 27.032C53.5762 28.8147 56.3302 31.1524 56.3302 33.0059C56.3182 34.8595 53.5642 37.209 49.307 38.9799Z" fill="url(#paint0_linear_1_144)"/>
<path d="M29.488 38.4014C32.5233 38.4014 34.9839 35.9858 34.9839 33.0059C34.9839 30.0261 32.5233 27.6105 29.488 27.6105C26.4527 27.6105 23.9921 30.0261 23.9921 33.0059C23.9921 35.9858 26.4527 38.4014 29.488 38.4014Z" fill="url(#paint1_linear_1_144)"/>
<defs>
<linearGradient id="paint0_linear_1_144" x1="29.5" y1="7.20923" x2="29.5" y2="58.7909" gradientUnits="userSpaceOnUse">
<stop stop-color="#00A7B4"/>
<stop offset="1" stop-color="#A4D96C"/>
</linearGradient>
<linearGradient id="paint1_linear_1_144" x1="29.488" y1="27.6105" x2="29.488" y2="38.4014" gradientUnits="userSpaceOnUse">
<stop stop-color="#00A7B4"/>
<stop offset="1" stop-color="#A4D96C"/>
</linearGradient>
</defs>
</svg>
